<svg width="100" height="100" viewBox="0 0 100 100" fill="none" xmlns="http://www.w3.org/2000/svg">
<path d="M47.9165 58.3333C65.1748 58.3333 79.1665 64.8624 79.1665 72.9166V83.3332H16.6665V72.9166C16.6665 64.8624 30.6582 58.3333 47.9165 58.3333ZM74.9998 72.9166C74.9998 67.1666 62.8748 62.4999 47.9165 62.4999C32.9582 62.4999 20.8332 67.1666 20.8332 72.9166V79.1666H74.9998V72.9166ZM47.9165 20.8333C51.7842 20.8333 55.4936 22.3697 58.2285 25.1046C60.9634 27.8395 62.4998 31.5488 62.4998 35.4166C62.4998 39.2843 60.9634 42.9937 58.2285 45.7286C55.4936 48.4635 51.7842 49.9999 47.9165 49.9999C44.0488 49.9999 40.3394 48.4635 37.6045 45.7286C34.8696 42.9937 33.3332 39.2843 33.3332 35.4166C33.3332 31.5488 34.8696 27.8395 37.6045 25.1046C40.3394 22.3697 44.0488 20.8333 47.9165 20.8333ZM47.9165 24.9999C45.1538 24.9999 42.5043 26.0974 40.5508 28.0509C38.5973 30.0044 37.4998 32.6539 37.4998 35.4166C37.4998 38.1793 38.5973 40.8288 40.5508 42.7823C42.5043 44.7358 45.1538 45.8333 47.9165 45.8333C50.6792 45.8333 53.3287 44.7358 55.2822 42.7823C57.2357 40.8288 58.3332 38.1793 58.3332 35.4166C58.3332 32.6539 57.2357 30.0044 55.2822 28.0509C53.3287 26.0974 50.6792 24.9999 47.9165 24.9999V24.9999Z" fill="black"/>
</svg>
