<svg width="100" height="100" viewBox="0 0 100 100" fill="none" xmlns="http://www.w3.org/2000/svg">
<path d="M49.9998 66.6667C52.21 66.6667 54.3296 67.5447 55.8924 69.1075C57.4552 70.6703 58.3332 72.7899 58.3332 75.0001C58.3332 77.2102 57.4552 79.3298 55.8924 80.8926C54.3296 82.4554 52.21 83.3334 49.9998 83.3334C47.7897 83.3334 45.6701 82.4554 44.1073 80.8926C42.5445 79.3298 41.6665 77.2102 41.6665 75.0001C41.6665 72.7899 42.5445 70.6703 44.1073 69.1075C45.6701 67.5447 47.7897 66.6667 49.9998 66.6667ZM49.9998 41.6667C52.21 41.6667 54.3296 42.5447 55.8924 44.1075C57.4552 45.6703 58.3332 47.7899 58.3332 50.0001C58.3332 52.2102 57.4552 54.3298 55.8924 55.8926C54.3296 57.4554 52.21 58.3334 49.9998 58.3334C47.7897 58.3334 45.6701 57.4554 44.1073 55.8926C42.5445 54.3298 41.6665 52.2102 41.6665 50.0001C41.6665 47.7899 42.5445 45.6703 44.1073 44.1075C45.6701 42.5447 47.7897 41.6667 49.9998 41.6667V41.6667ZM49.9998 16.6667C52.21 16.6667 54.3296 17.5447 55.8924 19.1075C57.4552 20.6703 58.3332 22.7899 58.3332 25.0001C58.3332 27.2102 57.4552 29.3298 55.8924 30.8926C54.3296 32.4554 52.21 33.3334 49.9998 33.3334C47.7897 33.3334 45.6701 32.4554 44.1073 30.8926C42.5445 29.3298 41.6665 27.2102 41.6665 25.0001C41.6665 22.7899 42.5445 20.6703 44.1073 19.1075C45.6701 17.5447 47.7897 16.6667 49.9998 16.6667ZM49.9998 20.8334C48.8948 20.8334 47.835 21.2724 47.0536 22.0538C46.2722 22.8352 45.8332 23.895 45.8332 25.0001C45.8332 26.1051 46.2722 27.165 47.0536 27.9464C47.835 28.7278 48.8948 29.1667 49.9998 29.1667C51.1049 29.1667 52.1647 28.7278 52.9461 27.9464C53.7275 27.165 54.1665 26.1051 54.1665 25.0001C54.1665 23.895 53.7275 22.8352 52.9461 22.0538C52.1647 21.2724 51.1049 20.8334 49.9998 20.8334ZM49.9998 45.8334C48.8948 45.8334 47.835 46.2724 47.0536 47.0538C46.2722 47.8352 45.8332 48.895 45.8332 50.0001C45.8332 51.1051 46.2722 52.165 47.0536 52.9464C47.835 53.7278 48.8948 54.1667 49.9998 54.1667C51.1049 54.1667 52.1647 53.7278 52.9461 52.9464C53.7275 52.165 54.1665 51.1051 54.1665 50.0001C54.1665 48.895 53.7275 47.8352 52.9461 47.0538C52.1647 46.2724 51.1049 45.8334 49.9998 45.8334ZM49.9998 70.8334C48.8948 70.8334 47.835 71.2724 47.0536 72.0538C46.2722 72.8352 45.8332 73.895 45.8332 75.0001C45.8332 76.1051 46.2722 77.165 47.0536 77.9464C47.835 78.7278 48.8948 79.1667 49.9998 79.1667C51.1049 79.1667 52.1647 78.7278 52.9461 77.9464C53.7275 77.165 54.1665 76.1051 54.1665 75.0001C54.1665 73.895 53.7275 72.8352 52.9461 72.0538C52.1647 71.2724 51.1049 70.8334 49.9998 70.8334Z" fill="black"/>
</svg>
