<svg width="100" height="100" viewBox="0 0 100 100" fill="none" xmlns="http://www.w3.org/2000/svg">
<path d="M51.128 77.532C47.7333 77.532 44.7693 76.924 42.236 75.708C39.7533 74.492 37.828 72.896 36.46 70.92C35.092 68.8933 34.2813 66.7147 34.028 64.384H35.548C35.8013 66.1573 36.4347 67.9307 37.448 69.704C38.512 71.4773 40.1587 72.9973 42.388 74.264C44.668 75.5307 47.5813 76.164 51.128 76.164C53.9653 76.164 56.4733 75.632 58.652 74.568C60.8307 73.4533 62.5027 71.984 63.668 70.16C64.8333 68.336 65.416 66.3093 65.416 64.08C65.416 61.192 64.7573 58.912 63.44 57.24C62.1227 55.5173 60.476 54.2507 58.5 53.44C56.5747 52.6293 53.9653 51.7933 50.672 50.932C47.2267 50.02 44.4653 49.108 42.388 48.196C40.3107 47.284 38.5373 45.8907 37.068 44.016C35.6493 42.0907 34.94 39.5067 34.94 36.264C34.94 33.9333 35.5733 31.7547 36.84 29.728C38.1573 27.6507 40.0067 26.004 42.388 24.788C44.82 23.572 47.5813 22.964 50.672 22.964C53.8133 22.964 56.524 23.5213 58.804 24.636C61.084 25.7507 62.8573 27.1693 64.124 28.892C65.4413 30.564 66.3027 32.3373 66.708 34.212H65.188C64.8333 32.7427 64.0987 31.248 62.984 29.728C61.8693 28.208 60.2733 26.9413 58.196 25.928C56.1187 24.864 53.6107 24.332 50.672 24.332C48.088 24.332 45.7067 24.8387 43.528 25.852C41.4 26.8147 39.6773 28.208 38.36 30.032C37.0933 31.8053 36.46 33.8827 36.46 36.264C36.46 39.2027 37.1187 41.5587 38.436 43.332C39.804 45.0547 41.476 46.3467 43.452 47.208C45.428 48.0187 48.0627 48.8547 51.356 49.716C54.8013 50.628 57.5373 51.54 59.564 52.452C61.6413 53.3133 63.3893 54.6813 64.808 56.556C66.2267 58.38 66.936 60.888 66.936 64.08C66.936 66.3093 66.328 68.4627 65.112 70.54C63.9467 72.6173 62.1733 74.3147 59.792 75.632C57.4107 76.8987 54.5227 77.532 51.128 77.532Z" fill="black"/>
<path d="M42.236 75.708L41.5762 77.0551L41.5869 77.0603L42.236 75.708ZM36.46 70.92L35.2167 71.7592L35.2217 71.7665L35.2267 71.7738L36.46 70.92ZM34.028 64.384V62.884H32.3561L32.5368 64.5461L34.028 64.384ZM35.548 64.384L37.0329 64.1719L36.8489 62.884H35.548V64.384ZM37.448 69.704L36.1456 70.4482L36.1536 70.4621L36.1618 70.4757L37.448 69.704ZM42.388 74.264L41.647 75.5682L41.6532 75.5717L41.6595 75.5752L42.388 74.264ZM58.652 74.568L59.3103 75.9159L59.3228 75.9097L59.3352 75.9034L58.652 74.568ZM63.668 70.16L62.404 69.3524L62.404 69.3524L63.668 70.16ZM63.44 57.24L62.2485 58.1512L62.2551 58.1598L62.2618 58.1683L63.44 57.24ZM58.5 53.44L57.9179 54.8225L57.9307 54.8278L58.5 53.44ZM50.672 50.932L50.2882 52.3821L50.2925 52.3832L50.672 50.932ZM42.388 48.196L41.785 49.5695L41.785 49.5695L42.388 48.196ZM37.068 44.016L35.8604 44.9058L35.8737 44.9238L35.8874 44.9413L37.068 44.016ZM36.84 29.728L35.5732 28.9247L35.568 28.933L36.84 29.728ZM42.388 24.788L41.7172 23.4463L41.7058 23.4521L42.388 24.788ZM58.804 24.636L58.1452 25.9836L58.1452 25.9836L58.804 24.636ZM64.124 28.892L62.9155 29.7806L62.9303 29.8007L62.9458 29.8203L64.124 28.892ZM66.708 34.212V35.712H68.567L68.1741 33.895L66.708 34.212ZM65.188 34.212L63.7299 34.564L64.007 35.712H65.188V34.212ZM62.984 29.728L64.1936 28.841L64.1936 28.841L62.984 29.728ZM58.196 25.928L57.5122 27.2631L57.5252 27.2697L57.5384 27.2761L58.196 25.928ZM43.528 25.852L44.1463 27.2187L44.1534 27.2154L44.1606 27.2121L43.528 25.852ZM38.36 30.032L37.144 29.1538L37.1394 29.1601L38.36 30.032ZM38.436 43.332L37.2319 44.2265L37.2463 44.2459L37.2613 44.2648L38.436 43.332ZM43.452 47.208L42.8526 48.583L42.8676 48.5896L42.8827 48.5958L43.452 47.208ZM51.356 49.716L51.7398 48.2659L51.7355 48.2648L51.356 49.716ZM59.564 52.452L58.9485 53.8199L58.9688 53.8291L58.9895 53.8376L59.564 52.452ZM64.808 56.556L63.6119 57.4612L63.6179 57.4691L63.624 57.4769L64.808 56.556ZM65.112 70.54L63.8175 69.7822L63.8105 69.7941L63.8038 69.8061L65.112 70.54ZM59.792 75.632L60.4964 76.9563L60.5073 76.9505L60.5181 76.9446L59.792 75.632ZM51.128 76.032C47.912 76.032 45.1781 75.4564 42.8851 74.3557L41.5869 77.0603C44.3606 78.3916 47.5547 79.032 51.128 79.032V76.032ZM42.8958 74.3609C40.6083 73.2405 38.8947 71.8016 37.6933 70.0662L35.2267 71.7738C36.7613 73.9904 38.8983 75.7435 41.5762 77.0551L42.8958 74.3609ZM37.7033 70.0808C36.4657 68.2473 35.745 66.2995 35.5192 64.2219L32.5368 64.5461C32.8176 67.1298 33.7183 69.5393 35.2167 71.7592L37.7033 70.0808ZM34.028 65.884H35.548V62.884H34.028V65.884ZM34.0631 64.5961C34.3466 66.5811 35.0515 68.5334 36.1456 70.4482L38.7504 68.9598C37.8179 67.3279 37.256 65.7335 37.0329 64.1719L34.0631 64.5961ZM36.1618 70.4757C37.3869 72.5177 39.2464 74.2042 41.647 75.5682L43.129 72.9598C41.071 71.7905 39.6371 70.437 38.7342 68.9323L36.1618 70.4757ZM41.6595 75.5752C44.2282 77.0023 47.4142 77.664 51.128 77.664V74.664C47.7485 74.664 45.1078 74.059 43.1165 72.9528L41.6595 75.5752ZM51.128 77.664C54.1548 77.664 56.8945 77.0957 59.3103 75.9159L57.9937 73.2201C56.0522 74.1683 53.7759 74.664 51.128 74.664V77.664ZM59.3352 75.9034C61.7193 74.6836 63.6054 73.0441 64.932 70.9676L62.404 69.3524C61.3999 70.9239 59.942 72.2231 57.9688 73.2326L59.3352 75.9034ZM64.932 70.9676C66.2563 68.8949 66.916 66.5865 66.916 64.08H63.916C63.916 66.0322 63.4104 67.7771 62.404 69.3524L64.932 70.9676ZM66.916 64.08C66.916 60.9745 66.2074 58.3288 64.6182 56.3117L62.2618 58.1683C63.3072 59.4952 63.916 61.4095 63.916 64.08H66.916ZM64.6315 56.3288C63.1553 54.3984 61.2952 52.9654 59.0693 52.0522L57.9307 54.8278C59.6568 55.5359 61.09 56.6363 62.2485 58.1512L64.6315 56.3288ZM59.0821 52.0575C57.0631 51.2075 54.3768 50.3505 51.0515 49.4808L50.2925 52.3832C53.5539 53.2362 56.0862 54.0512 57.9179 54.8225L59.0821 52.0575ZM51.0558 49.4819C47.6483 48.5799 44.9692 47.691 42.991 46.8225L41.785 49.5695C43.9614 50.525 46.805 51.4601 50.2882 52.3821L51.0558 49.4819ZM42.991 46.8225C41.1516 46.015 39.5732 44.7807 38.2486 43.0907L35.8874 44.9413C37.5015 47.0007 39.4697 48.553 41.785 49.5695L42.991 46.8225ZM38.2756 43.1262C37.1041 41.5363 36.44 39.2987 36.44 36.264H33.44C33.44 39.7146 34.1946 42.645 35.8604 44.9058L38.2756 43.1262ZM36.44 36.264C36.44 34.2219 36.9903 32.3177 38.112 30.523L35.568 28.933C34.1563 31.1917 33.44 33.6448 33.44 36.264H36.44ZM38.1068 30.5313C39.268 28.7001 40.9064 27.2288 43.0702 26.1239L41.7058 23.4521C39.107 24.7792 37.0467 26.6012 35.5732 28.9247L38.1068 30.5313ZM43.0588 26.1296C45.2557 25.0312 47.7822 24.464 50.672 24.464V21.464C47.3805 21.464 44.3843 22.1128 41.7172 23.4464L43.0588 26.1296ZM50.672 24.464C53.6381 24.464 56.1132 24.9902 58.1452 25.9836L59.4628 23.2884C56.9348 22.0525 53.9885 21.464 50.672 21.464V24.464ZM58.1452 25.9836C60.2481 27.0117 61.8169 28.2864 62.9155 29.7806L65.3325 28.0034C63.8978 26.0523 61.9199 24.4897 59.4628 23.2884L58.1452 25.9836ZM62.9458 29.8203C64.1376 31.333 64.8898 32.9009 65.2419 34.529L68.1741 33.895C67.7155 31.7738 66.7451 29.795 65.3022 27.9637L62.9458 29.8203ZM66.708 32.712H65.188V35.712H66.708V32.712ZM66.6461 33.86C66.2349 32.1563 65.3977 30.4828 64.1936 28.841L61.7744 30.615C62.7997 32.0131 63.4318 33.329 63.7299 34.564L66.6461 33.86ZM64.1936 28.841C62.9061 27.0852 61.1008 25.676 58.8536 24.5798L57.5384 27.2761C59.4458 28.2066 60.8326 29.3308 61.7744 30.615L64.1936 28.841ZM58.8798 24.5929C56.5431 23.3961 53.7883 22.832 50.672 22.832V25.832C53.433 25.832 55.6942 26.3319 57.5122 27.2631L58.8798 24.5929ZM50.672 22.832C47.8862 22.832 45.2869 23.3796 42.8954 24.4919L44.1606 27.2121C46.1265 26.2977 48.2898 25.832 50.672 25.832V22.832ZM42.9097 24.4853C40.5528 25.5516 38.6205 27.1093 37.144 29.1538L39.576 30.9102C40.7341 29.3067 42.2472 28.0777 44.1463 27.2187L42.9097 24.4853ZM37.1394 29.1601C35.6741 31.2116 34.96 33.6005 34.96 36.264H37.96C37.96 34.1648 38.5126 32.3991 39.5806 30.9039L37.1394 29.1601ZM34.96 36.264C34.96 39.4192 35.6678 42.1209 37.2319 44.2265L39.6401 42.4375C38.5696 40.9964 37.96 38.9861 37.96 36.264H34.96ZM37.2613 44.2648C38.7788 46.1757 40.6468 47.6215 42.8526 48.583L44.0514 45.833C42.3052 45.0718 40.8292 43.9337 39.6107 42.3992L37.2613 44.2648ZM42.8827 48.5958C44.9456 49.4421 47.6516 50.2976 50.9765 51.1672L51.7355 48.2648C48.4737 47.4117 45.9104 46.5953 44.0213 45.8202L42.8827 48.5958ZM50.9722 51.1661C54.3794 52.068 57.0275 52.9554 58.9485 53.8199L60.1795 51.0841C58.0472 50.1246 55.2233 49.188 51.7398 48.2659L50.9722 51.1661ZM58.9895 53.8376C60.8092 54.5921 62.3464 55.789 63.6119 57.4612L66.0041 55.6508C64.4322 53.5737 62.4735 52.0345 60.1385 51.0664L58.9895 53.8376ZM63.624 57.4769C64.7723 58.9534 65.436 61.0963 65.436 64.08H68.436C68.436 60.6797 67.681 57.8066 65.992 55.6351L63.624 57.4769ZM65.436 64.08C65.436 66.0219 64.91 67.9158 63.8175 69.7822L66.4065 71.2978C67.746 69.0095 68.436 66.5968 68.436 64.08H65.436ZM63.8038 69.8061C62.7935 71.607 61.2387 73.1175 59.0659 74.3194L60.5181 76.9446C63.1079 75.5119 65.0998 73.6276 66.4202 71.2739L63.8038 69.8061ZM59.0876 74.3077C56.9721 75.433 54.3392 76.032 51.128 76.032V79.032C54.7061 79.032 57.8492 78.3644 60.4964 76.9563L59.0876 74.3077Z" fill="black"/>
<line x1="51" y1="17" x2="51" y2="83" stroke="black" stroke-width="4"/>
</svg>
