<svg width="100" height="100" viewBox="0 0 100 100" fill="none" xmlns="http://www.w3.org/2000/svg">
<path d="M24.9998 20.8333H37.4998L49.9998 33.3333H79.1665C82.4817 33.3333 85.6611 34.6502 88.0053 36.9944C90.3495 39.3386 91.6665 42.518 91.6665 45.8333V70.8333C91.6665 74.1485 90.3495 77.3279 88.0053 79.6721C85.6611 82.0163 82.4817 83.3333 79.1665 83.3333H24.9998C21.6846 83.3333 18.5052 82.0163 16.161 79.6721C13.8168 77.3279 12.4998 74.1485 12.4998 70.8333V33.3333C12.4998 30.018 13.8168 26.8386 16.161 24.4944C18.5052 22.1502 21.6846 20.8333 24.9998 20.8333V20.8333ZM24.9998 24.9999C22.7897 24.9999 20.6701 25.8779 19.1073 27.4407C17.5445 29.0035 16.6665 31.1231 16.6665 33.3333V70.8333C16.6665 73.0434 17.5445 75.163 19.1073 76.7258C20.6701 78.2886 22.7897 79.1666 24.9998 79.1666H79.1665C81.3766 79.1666 83.4963 78.2886 85.0591 76.7258C86.6219 75.163 87.4998 73.0434 87.4998 70.8333V45.8333C87.4998 43.6231 86.6219 41.5035 85.0591 39.9407C83.4963 38.3779 81.3766 37.4999 79.1665 37.4999H48.2748L35.7748 24.9999H24.9998ZM24.9998 91.6666C22.264 91.6666 19.5549 91.1277 17.0273 90.0808C14.4996 89.0338 12.203 87.4992 10.2684 85.5647C6.36144 81.6576 4.1665 76.3586 4.1665 70.8333V37.4999H8.33317V70.8333C8.33317 75.2535 10.0891 79.4928 13.2147 82.6184C16.3403 85.744 20.5796 87.4999 24.9998 87.4999H74.9998V91.6666H24.9998Z" fill="black"/>
</svg>
