<svg width="100" height="100" viewBox="0 0 100 100" fill="none" xmlns="http://www.w3.org/2000/svg">
<path d="M39.584 16.6667C44.7654 16.6666 49.8382 18.1529 54.2004 20.9491C58.5626 23.7453 62.0311 27.7342 64.1944 32.4425C66.3577 37.1507 67.1251 42.3807 66.4054 47.512C65.6856 52.6432 63.5091 57.4603 60.134 61.3917L83.6506 84.9084L80.7048 87.8542L57.184 64.3334C53.8668 67.1702 49.9131 69.1631 45.6597 70.1426C41.4063 71.1221 36.9792 71.0591 32.7553 69.959C28.5315 68.8588 24.6362 66.7541 21.4011 63.8241C18.166 60.8941 15.6869 57.2256 14.1751 53.131C12.6633 49.0365 12.1634 44.6372 12.7182 40.3079C13.2729 35.9786 14.8658 31.8474 17.3611 28.2663C19.8565 24.6853 23.1804 21.7603 27.0497 19.7407C30.9191 17.721 35.2192 16.6664 39.584 16.6667V16.6667ZM39.584 20.8334C33.5061 20.8334 27.6771 23.2478 23.3794 27.5456C19.0817 31.8433 16.6673 37.6722 16.6673 43.7501C16.6673 49.828 19.0817 55.6569 23.3794 59.9546C27.6771 64.2523 33.5061 66.6667 39.584 66.6667C45.6618 66.6667 51.4908 64.2523 55.7885 59.9546C60.0862 55.6569 62.5006 49.828 62.5006 43.7501C62.5006 37.6722 60.0862 31.8433 55.7885 27.5456C51.4908 23.2478 45.6618 20.8334 39.584 20.8334Z" fill="black"/>
</svg>
