<svg width="100" height="100" viewBox="0 0 100 100" fill="none" xmlns="http://www.w3.org/2000/svg">
<path d="M14.5833 33.3334C13.4327 33.3334 12.5 32.4007 12.5 31.2501V31.2501C12.5 30.0995 13.4327 29.1667 14.5833 29.1667H81.25C82.4006 29.1667 83.3333 30.0995 83.3333 31.2501V31.2501C83.3333 32.4007 82.4006 33.3334 81.25 33.3334H14.5833ZM57.4381 50.0001C58.5887 50.0001 59.5214 50.9328 59.5214 52.0834V52.0834C59.5214 53.234 58.5887 54.1667 57.4381 54.1667H14.5833C13.4327 54.1667 12.5 53.234 12.5 52.0834V52.0834C12.5 50.9328 13.4327 50.0001 14.5833 50.0001H57.4381ZM12.5 72.9168C12.5 71.7662 13.4327 70.8334 14.5833 70.8334H33.6295C34.7801 70.8334 35.7129 71.7662 35.7129 72.9168V72.9168C35.7129 74.0673 34.7801 75.0001 33.6295 75.0001H14.5833C13.4327 75.0001 12.5 74.0673 12.5 72.9168V72.9168Z" fill="black"/>
</svg>
