<svg width="100" height="100" viewBox="0 0 100 100" fill="none" xmlns="http://www.w3.org/2000/svg">
<path d="M45.8332 54.1667V16.6667H49.9998V54.1667H45.8332ZM79.1665 52.0834C79.1652 57.5368 77.7368 62.8949 75.0234 67.6252C72.3099 72.3556 68.4058 76.2935 63.699 79.0477C58.9922 81.8018 53.6466 83.2763 48.1935 83.3247C42.7403 83.373 37.3694 81.9935 32.6146 79.3232C27.8597 76.6529 23.8864 72.7847 21.0895 68.1032C18.2926 63.4217 16.7695 58.0898 16.6715 52.6373C16.5736 47.1848 17.9042 41.8016 20.5311 37.0226C23.158 32.2436 26.9898 28.2353 31.6457 25.3959L34.6915 28.4417C29.4615 31.3683 25.3498 35.9469 23.0006 41.4604C20.6514 46.9739 20.1973 53.111 21.7095 58.9102C23.2216 64.7094 26.6147 69.8433 31.3571 73.5077C36.0995 77.1721 41.9234 79.1599 47.9165 79.1599C53.9097 79.1599 59.7335 77.1721 64.4759 73.5077C69.2183 69.8433 72.6114 64.7094 74.1235 58.9102C75.6357 53.111 75.1816 46.9739 72.8324 41.4604C70.4832 35.9469 66.3716 31.3683 61.1415 28.4417L64.1832 25.4001C68.7602 28.1885 72.5426 32.1078 75.1667 36.781C77.7908 41.4541 79.1682 46.7239 79.1665 52.0834V52.0834Z" fill="black"/>
</svg>
