<svg width="100" height="100" viewBox="0 0 100 100" fill="none" xmlns="http://www.w3.org/2000/svg">
<path d="M12.5002 85.775L27.4418 70.8333H75.0002C77.2103 70.8333 79.3299 69.9554 80.8927 68.3926C82.4555 66.8298 83.3335 64.7101 83.3335 62.5V25C83.3335 22.7899 82.4555 20.6702 80.8927 19.1074C79.3299 17.5446 77.2103 16.6667 75.0002 16.6667H20.8335C18.6234 16.6667 16.5037 17.5446 14.9409 19.1074C13.3781 20.6702 12.5002 22.7899 12.5002 25V85.775ZM12.5002 91.6667H8.3335V25C8.3335 21.6848 9.65046 18.5054 11.9947 16.1612C14.3389 13.817 17.5183 12.5 20.8335 12.5H75.0002C78.3154 12.5 81.4948 13.817 83.839 16.1612C86.1832 18.5054 87.5002 21.6848 87.5002 25V62.5C87.5002 65.8152 86.1832 68.9946 83.839 71.3388C81.4948 73.683 78.3154 75 75.0002 75H29.1668L12.5002 91.6667ZM27.0835 37.5C28.7411 37.5 30.3308 38.1585 31.5029 39.3306C32.675 40.5027 33.3335 42.0924 33.3335 43.75C33.3335 45.4076 32.675 46.9973 31.5029 48.1694C30.3308 49.3415 28.7411 50 27.0835 50C25.4259 50 23.8362 49.3415 22.6641 48.1694C21.492 46.9973 20.8335 45.4076 20.8335 43.75C20.8335 42.0924 21.492 40.5027 22.6641 39.3306C23.8362 38.1585 25.4259 37.5 27.0835 37.5V37.5ZM27.0835 41.6667C26.531 41.6667 26.0011 41.8862 25.6104 42.2769C25.2197 42.6676 25.0002 43.1975 25.0002 43.75C25.0002 44.3025 25.2197 44.8324 25.6104 45.2231C26.0011 45.6138 26.531 45.8333 27.0835 45.8333C27.636 45.8333 28.1659 45.6138 28.5566 45.2231C28.9473 44.8324 29.1668 44.3025 29.1668 43.75C29.1668 43.1975 28.9473 42.6676 28.5566 42.2769C28.1659 41.8862 27.636 41.6667 27.0835 41.6667ZM47.9168 37.5C49.5744 37.5 51.1641 38.1585 52.3362 39.3306C53.5083 40.5027 54.1668 42.0924 54.1668 43.75C54.1668 45.4076 53.5083 46.9973 52.3362 48.1694C51.1641 49.3415 49.5744 50 47.9168 50C46.2592 50 44.6695 49.3415 43.4974 48.1694C42.3253 46.9973 41.6668 45.4076 41.6668 43.75C41.6668 42.0924 42.3253 40.5027 43.4974 39.3306C44.6695 38.1585 46.2592 37.5 47.9168 37.5ZM47.9168 41.6667C47.3643 41.6667 46.8344 41.8862 46.4437 42.2769C46.053 42.6676 45.8335 43.1975 45.8335 43.75C45.8335 44.3025 46.053 44.8324 46.4437 45.2231C46.8344 45.6138 47.3643 45.8333 47.9168 45.8333C48.4694 45.8333 48.9993 45.6138 49.39 45.2231C49.7807 44.8324 50.0002 44.3025 50.0002 43.75C50.0002 43.1975 49.7807 42.6676 49.39 42.2769C48.9993 41.8862 48.4694 41.6667 47.9168 41.6667ZM68.7502 37.5C70.4078 37.5 71.9975 38.1585 73.1696 39.3306C74.3417 40.5027 75.0002 42.0924 75.0002 43.75C75.0002 45.4076 74.3417 46.9973 73.1696 48.1694C71.9975 49.3415 70.4078 50 68.7502 50C67.0926 50 65.5028 49.3415 64.3307 48.1694C63.1586 46.9973 62.5002 45.4076 62.5002 43.75C62.5002 42.0924 63.1586 40.5027 64.3307 39.3306C65.5028 38.1585 67.0926 37.5 68.7502 37.5ZM68.7502 41.6667C68.1976 41.6667 67.6677 41.8862 67.277 42.2769C66.8863 42.6676 66.6668 43.1975 66.6668 43.75C66.6668 44.3025 66.8863 44.8324 67.277 45.2231C67.6677 45.6138 68.1976 45.8333 68.7502 45.8333C69.3027 45.8333 69.8326 45.6138 70.2233 45.2231C70.614 44.8324 70.8335 44.3025 70.8335 43.75C70.8335 43.1975 70.614 42.6676 70.2233 42.2769C69.8326 41.8862 69.3027 41.6667 68.7502 41.6667Z" fill="black"/>
</svg>
