<svg width="100" height="100" viewBox="0 0 100 100" fill="none" xmlns="http://www.w3.org/2000/svg">
<path d="M50 18.75C50 18.1975 49.7805 17.6676 49.3898 17.2769C48.9991 16.8862 48.4692 16.6667 47.9167 16.6667C47.3641 16.6667 46.8342 16.8862 46.4435 17.2769C46.0528 17.6676 45.8333 18.1975 45.8333 18.75V25.1125C41.2492 25.625 37.0148 27.8093 33.94 31.2477C30.8652 34.6861 29.1658 39.1373 29.1667 43.75V68.3917L22.5583 75H73.275L66.6667 68.3917V43.75C66.6676 39.1373 64.9681 34.6861 61.8933 31.2477C58.8185 27.8093 54.5841 25.625 50 25.1125V18.75ZM47.9167 12.5C49.5743 12.5 51.164 13.1585 52.3361 14.3306C53.5082 15.5027 54.1667 17.0924 54.1667 18.75V21.6958C63.7875 24.4167 70.8333 33.2583 70.8333 43.75V66.6667L83.3333 79.1667H12.5L25 66.6667V43.75C25 38.7611 26.6274 33.9084 29.6353 29.9283C32.6432 25.9481 36.8673 23.0578 41.6667 21.6958V18.75C41.6667 17.0924 42.3251 15.5027 43.4972 14.3306C44.6693 13.1585 46.2591 12.5 47.9167 12.5ZM47.9167 91.6667C45.5153 91.6672 43.1875 90.838 41.3273 89.3194C39.467 87.8008 38.1886 85.6862 37.7083 83.3333H42.0208C42.4503 84.5542 43.2481 85.6115 44.3042 86.3596C45.3603 87.1076 46.6225 87.5093 47.9167 87.5093C49.2108 87.5093 50.473 87.1076 51.5291 86.3596C52.5852 85.6115 53.383 84.5542 53.8125 83.3333H58.125C57.6447 85.6862 56.3663 87.8008 54.506 89.3194C52.6458 90.838 50.318 91.6672 47.9167 91.6667V91.6667Z" fill="black"/>
</svg>
