<svg width="100" height="100" viewBox="0 0 100 100" fill="none" xmlns="http://www.w3.org/2000/svg">
<path d="M81.6161 64.55L74.0578 59.175C75.3272 54.5074 75.32 49.5847 74.0369 44.9208L81.6203 39.6125L75.5661 29.1375L67.1328 32.9958C63.7241 29.5626 59.456 27.1077 54.7744 25.8875L53.9703 16.6667H41.8619L41.0578 25.8875C36.3771 27.1094 32.1105 29.5657 28.7036 33L20.2661 29.1417L14.2161 39.6167L21.7994 44.925C20.5158 49.5871 20.5071 54.5084 21.7744 59.175L14.2161 64.55L20.2661 74.975L28.7036 71.1125C32.111 74.5453 36.3776 77.0002 41.0578 78.2208L41.8619 87.4417H53.9703L54.7744 78.2208C59.4545 77 63.7211 74.5451 67.1286 71.1125L75.5661 74.975L81.6203 64.5542L81.6161 64.55ZM56.2703 12.4375C56.8066 12.4369 57.3225 12.6432 57.7105 13.0134C58.0986 13.3836 58.3289 13.8892 58.3536 14.425L59.0953 22.9042C62.1754 24.078 65.0489 25.7348 67.6078 27.8125L75.3161 24.2167C75.7922 23.9717 76.3443 23.9194 76.8579 24.0707C77.3715 24.222 77.8072 24.5652 78.0744 25.0292L86.4286 39.4875C86.697 39.951 86.7767 40.5 86.651 41.0206C86.5253 41.5412 86.2039 41.9934 85.7536 42.2833L78.7786 47.1667C79.3119 50.4917 79.2953 53.8042 78.7828 56.9958L85.7536 61.8708C86.205 62.1608 86.5271 62.6138 86.6529 63.1354C86.7786 63.657 86.6983 64.207 86.4286 64.6708L78.0744 79.075C77.8072 79.5389 77.3715 79.8821 76.8579 80.0334C76.3443 80.1847 75.7922 80.1325 75.3161 79.8875L67.6078 76.2917C65.0994 78.3333 62.2411 80 59.0953 81.2042L58.3536 89.6833C58.3279 90.2184 58.0971 90.7229 57.7091 91.0922C57.3212 91.4616 56.8059 91.6673 56.2703 91.6667H39.5619C39.0263 91.6673 38.511 91.4616 38.1231 91.0922C37.7351 90.7229 37.5043 90.2184 37.4786 89.6833L36.7369 81.2042C33.6567 80.0289 30.7832 78.3706 28.2244 76.2917L20.5161 79.8875C20.0401 80.1341 19.4873 80.1877 18.9728 80.0371C18.4583 79.8866 18.0216 79.5435 17.7536 79.0792L9.4036 64.6667C9.13518 64.2032 9.05555 63.6542 9.18124 63.1336C9.30693 62.613 9.62829 62.1608 10.0786 61.8708L17.0494 56.9917C16.5274 53.7361 16.5274 50.4181 17.0494 47.1625L10.0828 42.2833C9.63356 41.9935 9.31297 41.542 9.18733 41.0224C9.06168 40.5028 9.14061 39.9547 9.40777 39.4917L17.7494 25.0292C18.0168 24.5642 18.4531 24.2202 18.9677 24.0688C19.4823 23.9175 20.0354 23.9704 20.5119 24.2167L28.2203 27.8125C30.7792 25.7348 33.6527 24.078 36.7328 22.9042L37.4744 14.425C37.4991 13.8892 37.7294 13.3836 38.1175 13.0134C38.5056 12.6432 39.0214 12.4369 39.5578 12.4375H56.2661H56.2703ZM47.9161 37.5C51.7838 37.5 55.4932 39.0365 58.2281 41.7714C60.963 44.5063 62.4994 48.2156 62.4994 52.0833C62.4994 55.9511 60.963 59.6604 58.2281 62.3953C55.4932 65.1302 51.7838 66.6667 47.9161 66.6667C44.0484 66.6667 40.339 65.1302 37.6041 62.3953C34.8692 59.6604 33.3328 55.9511 33.3328 52.0833C33.3328 48.2156 34.8692 44.5063 37.6041 41.7714C40.339 39.0365 44.0484 37.5 47.9161 37.5ZM47.9161 41.6667C45.1534 41.6667 42.5039 42.7641 40.5504 44.7176C38.5969 46.6711 37.4994 49.3207 37.4994 52.0833C37.4994 54.846 38.5969 57.4955 40.5504 59.449C42.5039 61.4025 45.1534 62.5 47.9161 62.5C50.6788 62.5 53.3283 61.4025 55.2818 59.449C57.2353 57.4955 58.3328 54.846 58.3328 52.0833C58.3328 49.3207 57.2353 46.6711 55.2818 44.7176C53.3283 42.7641 50.6788 41.6667 47.9161 41.6667V41.6667Z" fill="black"/>
</svg>
